<?xml version="1.0"?>
<svg xmlns="http://www.w3.org/2000/svg" version="1" viewBox="0 0 24 24" enable-background="new 0 0 24 24">
    <path d="M 6 2 C 4.9 2 4 2.9 4 4 L 4 20 C 4 21.1 4.9 22 6 22 L 18 22 C 19.1 22 20 21.1 20 20 L 20 4 C 20 2.9 19.1 2 18 2 L 6 2 z M 6 4 L 18 4 L 18 8 L 6 8 L 6 4 z M 15 5 L 15 7 L 17 7 L 17 5 L 15 5 z M 7 10 L 9 10 L 9 12 L 7 12 L 7 10 z M 11 10 L 13 10 L 13 12 L 11 12 L 11 10 z M 15 10 L 17 10 L 17 12 L 15 12 L 15 10 z M 7 14 L 9 14 L 9 16 L 7 16 L 7 14 z M 11 14 L 13 14 L 13 16 L 11 16 L 11 14 z M 15 14 L 17 14 L 17 16 L 15 16 L 15 14 z M 7 18 L 9 18 L 9 20 L 7 20 L 7 18 z M 11 18 L 13 18 L 13 20 L 11 20 L 11 18 z M 15 18 L 17 18 L 17 20 L 15 20 L 15 18 z"/>
</svg>
