<?xml version="1.0" encoding="UTF-8" standalone="no"?>
<!-- Svg Vector Icons : http://www.onlinewebfonts.com/icon -->

<svg
   xmlns:dc="http://purl.org/dc/elements/1.1/"
   xmlns:cc="http://creativecommons.org/ns#"
   xmlns:rdf="http://www.w3.org/1999/02/22-rdf-syntax-ns#"
   xmlns:svg="http://www.w3.org/2000/svg"
   xmlns="http://www.w3.org/2000/svg"
   xmlns:sodipodi="http://sodipodi.sourceforge.net/DTD/sodipodi-0.dtd"
   xmlns:inkscape="http://www.inkscape.org/namespaces/inkscape"
   version="1.1"
   x="0px"
   y="0px"
   viewBox="0 0 1000 1000"
   enable-background="new 0 0 1000 1000"
   xml:space="preserve"
   id="svg2"
   inkscape:version="0.91 r13725"
   sodipodi:docname="RPM.svg"><defs
     id="defs28" /><sodipodi:namedview
     pagecolor="#ffffff"
     bordercolor="#666666"
     borderopacity="1"
     objecttolerance="10"
     gridtolerance="10"
     guidetolerance="10"
     inkscape:pageopacity="0"
     inkscape:pageshadow="2"
     inkscape:window-width="1920"
     inkscape:window-height="1137"
     id="namedview26"
     showgrid="false"
     inkscape:zoom="0.3337544"
     inkscape:cx="635.77956"
     inkscape:cy="659.47398"
     inkscape:window-x="-8"
     inkscape:window-y="-8"
     inkscape:window-maximized="1"
     inkscape:current-layer="g8" /><metadata
     id="metadata4"> Svg Vector Icons : http://www.onlinewebfonts.com/icon <rdf:RDF><cc:Work
     rdf:about=""><dc:format>image/svg+xml</dc:format><dc:type
       rdf:resource="http://purl.org/dc/dcmitype/StillImage" /><dc:title></dc:title></cc:Work></rdf:RDF></metadata><g
     id="g8"
     transform="matrix(0.1,0,0,-0.1,0,512)"><path
       inkscape:connector-curvature="0"
       id="path10"
       d="M 4526.1,5009.2 C 3048.2,4857.8 1733.3,4066.1 899.5,2822.1 592.8,2362.1 305.3,1677.8 196,1139.1 113.6,725.1 98.2,575.6 100.2,113.6 c 0,-500.3 34.5,-785.9 149.5,-1226.8 90.1,-343.1 178.3,-580.8 356.5,-939.2 956.5,-1936 3072.7,-3019 5204.2,-2662.5 1500.9,251.1 2831.2,1221 3538.4,2582 347,670.9 519.5,1332.2 548.2,2093.2 46,1326.4 -446.6,2605 -1374.4,3563.4 -772.4,797.3 -1727,1288 -2836.8,1458.6 -239.6,36.5 -914.4,53.7 -1159.7,26.9 z m 1083,-776.3 C 6950.9,4029.7 8125.9,3171 8720.1,1957.6 8913.7,1564.7 9023,1217.7 9101.6,755.7 c 57.5,-341.2 57.5,-923.9 0,-1265.1 -134.2,-789.7 -439,-1454.9 -939.2,-2051 -531,-634.5 -1303.4,-1123.3 -2104.7,-1332.2 -383.4,-99.7 -636.4,-130.3 -1061.9,-130.3 -425.5,0 -678.5,30.7 -1061.9,130.3 -799.3,208.9 -1569.9,693.9 -2106.6,1332.2 -1259.4,1497 -1316.9,3622.8 -139.9,5194.6 174.4,233.9 563.5,623 797.4,797.4 621,463.9 1353.3,753.3 2118.1,831.9 231.8,23 758.9,7.7 1006.2,-30.6 z" /><path
       inkscape:connector-curvature="0"
       id="path12"
       d="M 4643,3207.4 C 4108.2,3151.8 3515.9,2929.5 3078.9,2620.8 2670.6,2331.4 2273.8,1867.5 2041.9,1401.7 1672,667.5 1608.7,-239.1 1869.4,-1011.6 c 61.3,-182.1 157.2,-404.4 168.7,-392.9 3.8,3.8 -11.5,49.8 -32.6,101.6 -69,161 -153.3,486.9 -182.1,713.1 -99.7,762.9 72.8,1493.2 509.9,2150.7 170.6,256.9 538.6,623 808.9,803.1 918.2,609.6 2054.8,682.4 3020.9,193.6 l 122.7,-61.3 139.9,151.4 c 76.7,82.4 139.9,157.2 141.8,164.8 0,24.9 -335.4,178.3 -527.1,239.6 -456.2,149.5 -941.2,203.2 -1397.4,155.3 z" /><path
       inkscape:connector-curvature="0"
       id="path16"
       d="m 7148.3,2103.3 c -97.8,-170.6 -115,-212.8 -95.8,-237.7 13.4,-17.3 80.5,-107.3 153.3,-201.3 141.9,-187.8 329.7,-548.2 404.5,-782.1 105.4,-322 134.2,-509.9 134.2,-893.2 0,-513.7 -72.9,-833.8 -293.3,-1274.7 -63.3,-126.5 -113.1,-230 -111.2,-231.9 1.9,-1.9 99.7,-57.5 214.7,-122.7 116.9,-65.2 247.3,-139.9 293.3,-166.8 l 82.4,-46 93.9,197.5 c 116.9,247.3 214.7,540.5 272.2,824.2 38.3,189.7 44.1,270.3 44.1,667.1 -1.9,394.9 -7.7,475.4 -46,651.7 -101.6,469.6 -312.4,958.4 -567.4,1313 -118.8,166.8 -419.8,508 -448.6,508 -7.6,0 -67,-92 -130.3,-205.1 z" /><path
       inkscape:connector-curvature="0"
       id="path18"
       d="m 3462.3,-2541.2 0,-172.5 182.1,0 182.1,0 0,172.5 0,172.5 -182.1,0 -182.1,0 0,-172.5 z" /><path
       inkscape:connector-curvature="0"
       id="path20"
       d="m 4286.5,-2541.2 0,-172.5 172.5,0 172.5,0 0,172.5 0,172.5 -172.5,0 -172.5,0 0,-172.5 z" /><path
       inkscape:connector-curvature="0"
       id="path22"
       d="m 5091.6,-2541.2 0,-172.5 182.1,0 182.1,0 0,172.5 0,172.5 -182.1,0 -182.1,0 0,-172.5 z" /><path
       inkscape:connector-curvature="0"
       id="path24"
       d="m 5915.8,-2541.2 0,-172.5 182.1,0 182.1,0 0,172.5 0,172.5 -182.1,0 -182.1,0 0,-172.5 z" /></g></svg>